<svg xmlns="http://www.w3.org/2000/svg" viewBox="0 0 400 400" width="400" height="400">
  <defs>
    <linearGradient id="blueGradient" x1="0%" y1="0%" x2="0%" y2="100%">
      <stop offset="0%" style="stop-color:#1D4E89;stop-opacity:1" />
      <stop offset="100%" style="stop-color:#0E2A4F;stop-opacity:1" />
    </linearGradient>
  </defs>
  
  <!-- Background Circle (optional) -->
  <circle cx="200" cy="200" r="190" fill="url(#blueGradient)" opacity="0.1"/>
  
  <!-- Orange Arc (Top) -->
  <path d="M 200 60 A 140 140 0 0 1 340 200" 
        fill="none" 
        stroke="#F97316" 
        stroke-width="16" 
        stroke-linecap="round"/>
  
  <!-- Compass Needle/Arrow -->
  <path d="M 200 50 L 220 90 L 200 80 L 180 90 Z" 
        fill="#F97316"/>
  
  <!-- Main Circle Border -->
  <circle cx="200" cy="200" r="140" 
          fill="none" 
          stroke="#F97316" 
          stroke-width="4" 
          opacity="0.3"/>
  
  <!-- Mountains (White) -->
  <!-- Left Mountain -->
  <path d="M 120 220 L 160 140 L 200 220 Z" 
        fill="white" 
        stroke="#4A90E2" 
        stroke-width="2"/>
  
  <!-- Center Mountain (Tallest) -->
  <path d="M 170 220 L 200 120 L 230 220 Z" 
        fill="white" 
        stroke="#4A90E2" 
        stroke-width="2"/>
  
  <!-- Right Mountain -->
  <path d="M 200 220 L 240 140 L 280 220 Z" 
        fill="white" 
        stroke="#4A90E2" 
        stroke-width="2"/>
  
  <!-- Mountain Snow Caps -->
  <path d="M 160 140 L 155 150 L 165 150 Z" fill="#E0F2FE"/>
  <path d="M 200 120 L 192 135 L 208 135 Z" fill="#E0F2FE"/>
  <path d="M 240 140 L 235 150 L 245 150 Z" fill="#E0F2FE"/>
  
  <!-- Water Waves (Bottom) - Blue Tones -->
  <path d="M 60 220 Q 100 210 140 220 T 220 220 T 300 220 T 340 220" 
        fill="none" 
        stroke="#1D4E89" 
        stroke-width="6" 
        stroke-linecap="round"/>
  
  <path d="M 60 235 Q 100 225 140 235 T 220 235 T 300 235 T 340 235" 
        fill="none" 
        stroke="#4A90E2" 
        stroke-width="5" 
        stroke-linecap="round" 
        opacity="0.8"/>
  
  <path d="M 60 248 Q 100 238 140 248 T 220 248 T 300 248 T 340 248" 
        fill="none" 
        stroke="#4A90E2" 
        stroke-width="4" 
        stroke-linecap="round" 
        opacity="0.5"/>
  
  <!-- Text: NORD WEB -->
  <text x="200" y="310" 
        font-family="'Poppins', sans-serif" 
        font-size="48" 
        font-weight="800" 
        fill="#0E2A4F" 
        text-anchor="middle">
    NORD WEB
  </text>
  
  <!-- Subtitle -->
  <text x="200" y="335" 
        font-family="'Inter', sans-serif" 
        font-size="14" 
        font-weight="600" 
        fill="#1D4E89" 
        text-anchor="middle" 
        letter-spacing="2">
    CRÉATION DE SITES WEB
  </text>
  
  <!-- Decorative underline -->
  <line x1="120" y1="320" x2="280" y2="320" 
        stroke="#F97316" 
        stroke-width="3" 
        stroke-linecap="round"/>
</svg>
